<?xml version="1.0" standalone="no"?>
<!DOCTYPE svg PUBLIC "-//W3C//DTD SVG 20010904//EN"
 "http://www.w3.org/TR/2001/REC-SVG-20010904/DTD/svg10.dtd">
<svg version="1.0" xmlns="http://www.w3.org/2000/svg"
 width="512.000000pt" height="512.000000pt" viewBox="0 0 512.000000 512.000000"
 preserveAspectRatio="xMidYMid meet">

<g transform="translate(0.000000,512.000000) scale(0.100000,-0.100000)"
fill="#000000" stroke="none">
<path d="M2138 5083 c-56 -59 -58 -68 -58 -242 l0 -161 -857 0 c-814 0 -860
-1 -898 -19 -22 -10 -52 -31 -66 -47 -15 -16 -79 -129 -143 -251 -156 -298
-156 -269 -4 -562 116 -222 159 -284 215 -308 26 -10 194 -13 893 -13 l860 0
0 -188 0 -188 -572 -52 c-363 -34 -581 -58 -597 -67 -40 -21 -59 -46 -189
-256 -167 -267 -171 -230 55 -462 97 -100 191 -191 209 -202 l33 -20 513 63
c282 35 521 66 531 68 16 5 17 -10 17 -205 l0 -211 -27 0 c-16 0 -258 12 -540
27 l-511 27 -37 -28 c-20 -16 -43 -43 -50 -60 -17 -43 -49 -515 -36 -548 11
-30 76 -88 99 -89 9 0 260 -21 557 -47 l540 -47 5 -477 c6 -551 -1 -518 100
-518 46 0 60 4 78 23 22 23 22 25 22 490 l0 467 23 -4 c12 -3 90 -10 172 -16
83 -6 160 -13 173 -16 l22 -4 0 -448 0 -449 23 -21 c18 -17 36 -22 79 -22 49
0 59 3 77 26 21 26 21 37 21 463 l0 437 198 -17 c484 -43 619 -52 643 -46 24
6 268 261 311 326 36 52 26 80 -91 254 -116 174 -152 213 -204 221 -32 6 -765
46 -824 46 l-33 0 0 285 c0 265 1 285 18 285 23 0 1440 178 1474 186 37 7 108
86 108 120 0 31 -59 580 -65 611 -7 32 -55 84 -91 99 -33 14 -24 14 -1081 -85
-270 -26 -329 -31 -345 -31 -16 0 -18 14 -18 150 l0 150 949 0 c645 0 959 3
978 11 59 22 94 71 209 301 152 304 152 272 3 571 -119 238 -155 287 -226 306
-25 7 -355 11 -975 11 l-938 0 0 154 c0 85 -5 167 -11 183 -5 15 -27 45 -47
66 l-36 37 -301 0 -301 0 -36 -37z m532 -273 l0 -130 -195 0 -195 0 0 130 0
130 195 0 195 0 0 -130z m2163 -535 l97 -195 -100 -200 -100 -200 -2168 2
-2167 3 -103 197 -103 197 103 196 103 195 2170 0 2170 0 98 -195z m-2163
-954 l0 -159 -42 -6 c-24 -3 -99 -10 -168 -16 -69 -6 -137 -13 -152 -15 l-28
-4 0 179 0 180 195 0 195 0 0 -159z m1544 -243 c8 -33 47 -420 44 -422 -2 -1
-723 -93 -1603 -203 l-1600 -201 -124 123 -124 123 89 143 c49 78 92 146 95
151 3 5 417 47 920 93 503 47 1006 94 1119 105 113 12 309 30 435 41 127 11
338 30 470 43 132 13 248 24 257 25 11 0 20 -8 22 -21z m-1544 -1094 c0 -248
-1 -265 -17 -260 -10 3 -98 8 -195 12 l-178 7 0 228 c0 126 1 229 3 230 7 2
346 47 365 48 l22 1 0 -266z m-920 -413 c107 -6 573 -31 1035 -56 462 -25 853
-46 869 -48 24 -2 40 -19 101 -109 l74 -107 -86 -96 -87 -96 -45 5 c-61 8
-2484 216 -2512 216 -24 0 -24 -14 -3 250 l6 75 227 -12 c124 -6 314 -16 421
-22z"/>
<path d="M655 4297 c-61 -16 -139 -99 -155 -165 -20 -84 0 -150 62 -212 71
-71 164 -88 253 -46 60 28 87 56 114 116 25 54 27 117 6 168 -25 58 -92 120
-149 137 -56 17 -75 17 -131 2z m125 -189 c13 -25 13 -31 0 -55 -37 -66 -120
-48 -120 27 0 46 18 61 70 57 26 -1 38 -9 50 -29z"/>
<path d="M4321 4300 c-93 -23 -171 -125 -171 -223 0 -124 107 -227 234 -227
123 0 242 139 220 257 -24 135 -156 225 -283 193z m104 -176 c26 -26 16 -85
-17 -104 -25 -13 -31 -13 -55 0 -63 36 -48 120 22 120 18 0 41 -7 50 -16z"/>
</g>
</svg>
