<?xml version="1.0" standalone="no"?>
<!DOCTYPE svg PUBLIC "-//W3C//DTD SVG 20010904//EN"
 "http://www.w3.org/TR/2001/REC-SVG-20010904/DTD/svg10.dtd">
<svg version="1.0" xmlns="http://www.w3.org/2000/svg"
 width="524.000000pt" height="524.000000pt" viewBox="0 0 524.000000 524.000000"
 preserveAspectRatio="xMidYMid meet">

<g transform="translate(0.000000,524.000000) scale(0.100000,-0.100000)"
fill="#000000" stroke="none">
<path d="M2168 5173 c-36 -38 -71 -78 -77 -90 -6 -13 -11 -76 -11 -152 l0
-131 -827 0 c-947 0 -864 8 -964 -96 -45 -47 -80 -103 -173 -281 -156 -298
-156 -269 -4 -562 96 -184 122 -226 178 -285 36 -38 79 -75 97 -82 27 -12 182
-14 863 -14 l830 0 0 -129 0 -129 -42 -6 c-24 -3 -268 -26 -542 -51 -319 -30
-509 -51 -525 -60 -55 -29 -133 -127 -250 -316 -105 -169 -121 -201 -121 -238
0 -41 4 -46 206 -254 113 -117 220 -221 239 -232 l34 -20 473 59 c260 32 485
61 501 63 l27 6 0 -147 c0 -132 -2 -146 -17 -146 -10 0 -218 11 -463 25 -602
34 -536 37 -615 -36 -44 -42 -68 -73 -75 -98 -16 -58 -42 -504 -32 -532 10
-25 134 -149 149 -149 4 0 240 -20 523 -45 283 -25 518 -45 523 -45 4 0 7
-201 7 -446 l0 -445 51 -55 c51 -53 53 -54 108 -54 55 0 58 1 109 53 l52 53 0
433 0 434 73 -7 c39 -4 100 -10 135 -13 l62 -6 0 -421 0 -422 53 -52 c51 -50
55 -52 108 -52 55 0 57 1 108 54 l51 55 0 405 c0 223 4 406 8 406 4 0 160 -14
347 -30 408 -36 424 -36 458 -10 31 25 315 334 340 370 35 50 24 80 -92 253
-121 180 -206 272 -262 281 -19 3 -169 12 -334 21 -165 8 -337 18 -383 21
l-82 6 2 226 3 226 695 88 c382 48 709 89 726 93 44 8 174 142 174 180 0 33
-59 581 -66 614 -7 32 -111 140 -151 157 -27 12 -87 8 -455 -26 -232 -22 -488
-46 -568 -54 -80 -8 -185 -18 -235 -21 -49 -3 -98 -9 -107 -11 -16 -5 -18 4
-18 85 l0 91 919 0 c620 0 929 3 948 11 15 5 57 38 91 72 58 56 74 83 178 289
153 305 153 272 -1 577 -107 214 -119 232 -180 289 -39 37 -79 65 -102 71 -25
7 -344 11 -945 11 l-908 0 0 124 c0 69 -5 137 -11 153 -5 15 -40 58 -77 96
l-66 67 -301 0 -301 0 -66 -67z m502 -303 l0 -70 -135 0 -135 0 0 70 0 70 135
0 135 0 0 -70z m2178 -565 l82 -165 -85 -170 -85 -170 -2138 0 -2137 0 -88
170 -88 169 87 165 87 166 2141 0 2141 0 83 -165z m-2178 -929 l0 -103 -77 -7
c-43 -3 -104 -9 -135 -13 l-58 -6 0 117 0 116 135 0 135 0 0 -104z m1553 -318
c11 -63 29 -267 25 -279 -3 -10 -448 -69 -1569 -210 l-1564 -197 -94 93 -94
93 74 121 c64 104 78 121 104 125 17 3 426 42 910 86 484 44 970 90 1080 101
110 11 304 29 430 40 127 11 316 28 420 38 105 10 209 19 231 20 40 1 42 -1
47 -31z m-1553 -1013 l0 -195 -37 0 c-21 0 -82 3 -135 7 l-98 6 0 173 0 173
43 6 c135 19 165 23 195 24 l32 1 0 -195z m-1114 -460 c468 -26 780 -43 1479
-80 369 -20 675 -37 680 -39 6 -2 33 -38 62 -79 l52 -76 -57 -65 c-57 -65 -57
-65 -102 -61 -25 3 -571 50 -1215 105 -643 55 -1189 102 -1212 105 l-41 6 4
77 c8 115 10 122 42 122 16 0 154 -7 308 -15z"/>
<path d="M715 4377 c-28 -7 -59 -29 -101 -71 -50 -50 -63 -70 -73 -113 -16
-67 -7 -120 30 -177 76 -114 195 -154 304 -102 122 58 185 195 140 304 -25 60
-112 140 -169 157 -56 17 -75 17 -131 2z m110 -217 c14 -45 -20 -79 -65 -65
-15 5 -20 15 -20 39 0 41 5 46 46 46 24 0 34 -5 39 -20z"/>
<path d="M4382 4381 c-104 -27 -192 -140 -192 -248 0 -122 126 -243 254 -243
55 0 105 25 164 83 104 102 105 223 3 330 -64 68 -151 97 -229 78z m96 -243
c3 -29 -1 -38 -17 -43 -12 -3 -30 -4 -40 0 -24 7 -35 37 -26 66 5 16 14 20 43
17 35 -3 37 -5 40 -40z"/>
</g>
</svg>
