<?xml version="1.0" standalone="no"?>
<!DOCTYPE svg PUBLIC "-//W3C//DTD SVG 20010904//EN"
 "http://www.w3.org/TR/2001/REC-SVG-20010904/DTD/svg10.dtd">
<svg version="1.0" xmlns="http://www.w3.org/2000/svg"
 width="512.000000pt" height="530.000000pt" viewBox="0 0 512.000000 530.000000"
 preserveAspectRatio="xMidYMid meet">

<g transform="translate(0.000000,530.000000) scale(0.100000,-0.100000)"
fill="#000000" stroke="none">
<path d="M2450 5294 c-376 -25 -741 -160 -1045 -388 -101 -76 -347 -316 -428
-419 -302 -381 -453 -858 -417 -1316 25 -315 120 -624 310 -1009 299 -609 749
-1230 1382 -1910 205 -220 238 -246 308 -246 70 0 103 26 308 246 633 680
1083 1301 1382 1910 311 630 385 1114 250 1618 -72 267 -184 488 -357 707 -81
103 -327 343 -428 419 -323 242 -693 373 -1095 387 -63 2 -140 3 -170 1z m348
-510 c323 -51 643 -207 846 -410 205 -205 359 -524 412 -854 20 -128 15 -381
-11 -509 -129 -649 -629 -1474 -1457 -2405 l-28 -31 -27 31 c-830 933 -1332
1761 -1458 2404 -26 130 -31 382 -11 510 53 330 207 649 412 854 200 201 520
357 839 410 114 19 364 19 483 0z"/>
<path d="M2457 4329 c-155 -16 -298 -68 -430 -156 -93 -61 -289 -257 -350
-350 -215 -325 -215 -741 0 -1066 61 -93 257 -289 350 -350 325 -215 741 -215
1066 0 93 61 289 257 350 350 209 315 215 731 15 1045 -85 132 -280 323 -410
400 -171 102 -391 149 -591 127z m253 -505 c90 -21 203 -79 254 -130 51 -51
109 -164 130 -254 9 -36 16 -103 16 -150 0 -107 -21 -194 -67 -288 -46 -93
-102 -149 -195 -195 -94 -46 -181 -67 -288 -67 -107 0 -194 21 -288 67 -93 46
-149 102 -195 195 -46 94 -67 181 -67 288 0 47 7 114 16 150 21 90 79 203 130
254 49 50 164 109 249 130 80 19 224 19 305 0z"/>
</g>
</svg>
