<?xml version="1.0" standalone="no"?>
<!DOCTYPE svg PUBLIC "-//W3C//DTD SVG 20010904//EN"
 "http://www.w3.org/TR/2001/REC-SVG-20010904/DTD/svg10.dtd">
<svg version="1.0" xmlns="http://www.w3.org/2000/svg"
 width="512.000000pt" height="530.000000pt" viewBox="0 0 512.000000 530.000000"
 preserveAspectRatio="xMidYMid meet">

<g transform="translate(0.000000,530.000000) scale(0.100000,-0.100000)"
fill="#000000" stroke="none">
<path d="M2403 5289 c-267 -24 -492 -124 -709 -316 -268 -239 -419 -485 -469
-769 -19 -104 -22 -328 -6 -425 30 -182 103 -358 211 -510 82 -116 311 -339
423 -414 198 -131 418 -195 667 -195 233 0 451 59 638 171 159 96 414 351 511
511 112 186 171 403 171 632 0 196 -42 390 -117 541 -80 160 -304 417 -473
544 -129 96 -287 170 -443 205 -59 14 -274 38 -302 35 -5 -1 -52 -5 -102 -10z
m375 -498 c163 -47 318 -144 404 -253 61 -76 132 -220 160 -323 17 -65 21
-109 22 -235 0 -180 -18 -270 -83 -405 -81 -167 -181 -268 -346 -350 -141 -70
-230 -89 -415 -89 -176 1 -258 17 -389 79 -189 90 -305 213 -385 408 -54 132
-61 174 -60 362 1 155 3 178 27 258 33 106 68 178 136 274 100 142 296 255
508 293 87 16 339 4 421 -19z"/>
<path d="M1353 2805 c-135 -24 -264 -79 -378 -160 -84 -60 -261 -245 -324
-339 -114 -169 -200 -389 -251 -645 -38 -190 -48 -277 -60 -500 -24 -445 42
-639 303 -887 114 -108 204 -167 318 -209 169 -61 94 -58 1509 -62 845 -3
1335 0 1410 6 143 13 253 41 351 91 104 51 167 100 280 216 108 111 156 180
199 288 54 135 64 200 64 426 -1 528 -108 964 -312 1275 -53 80 -241 278 -321
337 -155 116 -384 186 -574 176 -81 -4 -85 -6 -372 -188 -103 -66 -263 -135
-376 -164 -327 -81 -618 -19 -975 210 -92 58 -185 115 -208 125 -49 22 -172
24 -283 4z m322 -551 c306 -196 538 -278 825 -291 176 -7 317 13 494 71 163
54 252 98 442 221 l149 96 63 -6 c90 -8 209 -48 279 -94 137 -88 256 -335 321
-666 40 -201 47 -277 47 -525 0 -231 -1 -249 -23 -313 -39 -111 -75 -156 -162
-200 -141 -71 -66 -68 -1588 -65 l-1367 3 -65 24 c-135 49 -181 85 -224 175
-43 91 -56 167 -56 336 0 463 99 878 269 1129 64 93 192 166 334 190 102 17
103 17 262 -85z"/>
</g>
</svg>
